<svg aria-hidden="true" style="position: absolute; width: 0; height: 0; overflow: hidden;" version="1.1" xmlns="http://www.w3.org/2000/svg" xmlns:xlink="http://www.w3.org/1999/xlink">
<defs>
<symbol id="icon-logo-1" viewBox="0 0 35 32">
<path fill="#ecd979" style="fill: var(--color1, #ecd979)" d="M35.153 31.565h-1.098v-1.112h1.098v1.112zM34.055 31.565h-1.098v-1.112h1.098v1.112zM29.664 31.565h-1.098v-1.112h1.098v1.112zM28.566 31.565h-1.098v-1.112h1.098v1.112zM27.468 31.565h-1.098v-1.112h1.098v1.112zM20.88 31.565h-1.098v-1.112h1.098v1.112zM14.294 31.565h-1.098v-1.112h1.098v1.112zM7.706 31.565h-1.098v-1.112h1.098v1.112zM6.609 31.565h-1.098v-1.112h1.097v1.112z"></path>
<path fill="#ecd979" style="fill: var(--color1, #ecd979)" d="M5.511 31.565h-1.098v-1.112h1.099v1.112zM1.12 31.565h-1.099v-1.112h1.099v1.112zM35.153 30.452h-1.098v-1.113h1.098v1.113zM30.762 30.452h-1.098v-1.113h1.098v1.113z"></path>
<path fill="#ecd979" style="fill: var(--color1, #ecd979)" d="M29.664 30.452h-1.098v-1.113h1.098v1.113zM28.566 30.452h-1.098v-1.113h1.098v1.113zM20.88 30.452h-1.098v-1.113h1.098v1.113z"></path>
<path fill="#ecd979" style="fill: var(--color1, #ecd979)" d="M19.783 30.452h-1.098v-1.113h1.098v1.113zM15.392 30.452h-1.098v-1.113h1.098v1.113z"></path>
<path fill="#ecd979" style="fill: var(--color1, #ecd979)" d="M14.294 30.452h-1.098v-1.113h1.098v1.113zM6.609 30.452h-1.098v-1.113h1.097v1.113z"></path>
<path fill="#ecd979" style="fill: var(--color1, #ecd979)" d="M5.511 30.452h-1.098v-1.113h1.099v1.113zM4.413 30.452h-1.098v-1.113h1.098v1.113zM31.859 29.339h-1.098v-1.113h1.098v1.112zM30.762 29.339h-1.098v-1.113h1.098v1.112z"></path>
<path fill="#ecd979" style="fill: var(--color1, #ecd979)" d="M29.664 29.339h-1.098v-1.113h1.098v1.112zM20.88 29.339h-1.098v-1.113h1.098v1.112z"></path>
<path fill="#ecd979" style="fill: var(--color1, #ecd979)" d="M19.783 29.339h-1.098v-1.113h1.098v1.112z"></path>
<path fill="#ecd979" style="fill: var(--color1, #ecd979)" d="M18.685 29.339h-1.098v-1.113h1.098v1.112zM16.49 29.339h-1.098v-1.113h1.098v1.112zM15.392 29.339h-1.098v-1.113h1.098v1.112z"></path>
<path fill="#ecd979" style="fill: var(--color1, #ecd979)" d="M14.294 29.339h-1.098v-1.113h1.098v1.112zM5.511 29.339h-1.098v-1.113h1.099v1.112zM4.413 29.339h-1.098v-1.113h1.098v1.112zM3.315 29.339h-1.098v-1.113h1.098v1.112zM32.957 28.226h-1.098v-1.114h1.098v1.114zM31.859 28.226h-1.098v-1.114h1.098v1.114zM30.762 28.226h-1.098v-1.114h1.098v1.114zM25.272 28.226h-1.098v-1.114h1.098v1.114zM24.174 28.226h-1.098v-1.114h1.098v1.114zM23.077 28.226h-1.098v-1.114h1.098v1.114zM19.783 28.226h-1.098v-1.114h1.098v1.114z"></path>
<path fill="#ecd979" style="fill: var(--color1, #ecd979)" d="M18.685 28.226h-1.098v-1.114h1.098v1.114zM16.49 28.226h-1.098v-1.114h1.098v1.114zM15.392 28.226h-1.098v-1.114h1.098v1.114zM12.098 28.226h-1.098v-1.114h1.098v1.114zM11 28.226h-1.098v-1.114h1.098v1.114zM9.902 28.226h-1.098v-1.114h1.098v1.114zM4.413 28.226h-1.098v-1.114h1.098v1.114zM3.315 28.226h-1.098v-1.114h1.098v1.114z"></path>
<path fill="#ecd979" style="fill: var(--color1, #ecd979)" d="M2.218 28.226h-1.098v-1.114h1.098v1.114zM34.055 27.113h-1.098v-1.113h1.098v1.113zM32.957 27.113h-1.098v-1.113h1.098v1.113zM31.859 27.113h-1.098v-1.113h1.098v1.113zM24.174 27.113h-1.098v-1.113h1.098v1.113zM23.077 27.113h-1.098v-1.113h1.098v1.113zM21.978 27.113h-1.098v-1.113h1.098v1.113zM18.685 27.113h-1.098v-1.113h1.098v1.113zM16.49 27.113h-1.098v-1.113h1.098v1.113zM13.196 27.113h-1.098v-1.113h1.098v1.113zM12.098 27.113h-1.098v-1.113h1.098v1.113zM11 27.113h-1.098v-1.113h1.098v1.113z"></path>
<path fill="#ecd979" style="fill: var(--color1, #ecd979)" d="M3.315 27.113h-1.098v-1.113h1.098v1.113z"></path>
<path fill="#ecd979" style="fill: var(--color1, #ecd979)" d="M2.218 27.113h-1.098v-1.113h1.098v1.113z"></path>
<path fill="#ecd979" style="fill: var(--color1, #ecd979)" d="M1.12 27.113h-1.099v-1.113h1.099v1.113zM34.055 26h-1.098v-1.113h1.098v1.113zM32.957 26h-1.098v-1.113h1.098v1.113zM23.077 26h-1.098v-1.113h1.098v1.113zM21.978 26h-1.098v-1.113h1.098v1.113z"></path>
<path fill="#ecd979" style="fill: var(--color1, #ecd979)" d="M20.88 26h-1.098v-1.113h1.098v1.113zM14.294 26h-1.098v-1.113h1.098v1.113zM13.196 26h-1.098v-1.113h1.098v1.113zM12.098 26h-1.098v-1.113h1.098v1.113zM2.218 26h-1.098v-1.113h1.098v1.113z"></path>
<path fill="#ecd979" style="fill: var(--color1, #ecd979)" d="M1.12 26h-1.099v-1.113h1.099v1.113zM34.055 24.887h-1.098v-1.114h1.098v1.114zM28.566 24.887h-1.098v-1.114h1.098v1.114zM18.685 24.887h-1.098v-1.114h1.098v1.114zM16.49 24.887h-1.098v-1.114h1.098v1.114zM6.609 24.887h-1.098v-1.114h1.097v1.114zM1.12 24.887h-1.099v-1.114h1.099v1.114zM28.566 23.774h-1.098v-1.112h1.098v1.112zM27.468 23.774h-1.098v-1.112h1.098v1.112zM19.783 23.774h-1.098v-1.112h1.098v1.112z"></path>
<path fill="#ecd979" style="fill: var(--color1, #ecd979)" d="M18.685 23.774h-1.098v-1.112h1.098v1.112zM16.49 23.774h-1.098v-1.112h1.098v1.112zM15.392 23.774h-1.098v-1.112h1.098v1.112zM7.706 23.774h-1.098v-1.112h1.098v1.112zM6.609 23.774h-1.098v-1.112h1.097v1.112zM28.566 22.661h-1.098v-1.113h1.098v1.113zM27.468 22.661h-1.098v-1.113h1.098v1.113zM26.37 22.661h-1.098v-1.113h1.098v1.113zM20.88 22.661h-1.098v-1.113h1.098v1.113z"></path>
<path fill="#ecd979" style="fill: var(--color1, #ecd979)" d="M19.783 22.661h-1.098v-1.113h1.098v1.113zM15.392 22.661h-1.098v-1.113h1.098v1.113z"></path>
<path fill="#ecd979" style="fill: var(--color1, #ecd979)" d="M14.294 22.661h-1.098v-1.113h1.098v1.113zM8.805 22.661h-1.098v-1.113h1.098v1.113zM7.706 22.661h-1.098v-1.113h1.098v1.113zM6.609 22.661h-1.098v-1.113h1.097v1.113zM27.468 21.548h-1.098v-1.113h1.098v1.112zM26.37 21.548h-1.098v-1.113h1.098v1.112zM21.978 21.548h-1.098v-1.113h1.098v1.112z"></path>
<path fill="#ecd979" style="fill: var(--color1, #ecd979)" d="M20.88 21.548h-1.098v-1.113h1.098v1.112zM14.294 21.548h-1.098v-1.113h1.098v1.112zM13.196 21.548h-1.098v-1.113h1.098v1.112zM8.805 21.548h-1.098v-1.113h1.098v1.112zM7.706 21.548h-1.098v-1.113h1.098v1.112zM31.859 20.435h-1.098v-1.114h1.098v1.114zM30.762 20.435h-1.098v-1.114h1.098v1.114z"></path>
<path fill="#ecd979" style="fill: var(--color1, #ecd979)" d="M29.664 20.435h-1.098v-1.114h1.098v1.114zM26.37 20.435h-1.098v-1.114h1.098v1.114zM23.077 20.435h-1.098v-1.114h1.098v1.114zM21.978 20.435h-1.098v-1.114h1.098v1.114zM13.196 20.435h-1.098v-1.114h1.098v1.114zM12.098 20.435h-1.098v-1.114h1.098v1.114zM8.805 20.435h-1.098v-1.114h1.098v1.114zM5.511 20.435h-1.098v-1.114h1.099v1.114zM4.413 20.435h-1.098v-1.114h1.098v1.114zM3.315 20.435h-1.098v-1.114h1.098v1.114zM35.153 19.322h-1.098v-1.113h1.098v1.113zM30.762 19.322h-1.098v-1.113h1.098v1.113z"></path>
<path fill="#ecd979" style="fill: var(--color1, #ecd979)" d="M29.664 19.322h-1.098v-1.113h1.098v1.113zM28.566 19.322h-1.098v-1.113h1.098v1.113zM24.174 19.322h-1.098v-1.113h1.098v1.113zM23.077 19.322h-1.098v-1.113h1.098v1.113zM12.098 19.322h-1.098v-1.113h1.098v1.113zM11 19.322h-1.098v-1.113h1.098v1.113zM6.609 19.322h-1.098v-1.113h1.097v1.113z"></path>
<path fill="#ecd979" style="fill: var(--color1, #ecd979)" d="M5.511 19.322h-1.098v-1.113h1.099v1.113zM4.413 19.322h-1.098v-1.113h1.098v1.113zM35.153 18.208h-1.098v-1.112h1.098v1.112zM34.055 18.208h-1.098v-1.112h1.098v1.112zM29.664 18.208h-1.098v-1.112h1.098v1.112zM28.566 18.208h-1.098v-1.112h1.098v1.112zM27.468 18.208h-1.098v-1.112h1.098v1.112zM25.272 18.208h-1.098v-1.112h1.098v1.112zM24.174 18.208h-1.098v-1.112h1.098v1.112zM17.587 18.208h-1.098v-1.112h1.098v1.112zM11 18.208h-1.098v-1.112h1.098v1.112zM9.902 18.208h-1.098v-1.112h1.098v1.112zM7.706 18.208h-1.098v-1.112h1.098v1.112zM6.609 18.208h-1.098v-1.112h1.097v1.112z"></path>
<path fill="#ecd979" style="fill: var(--color1, #ecd979)" d="M5.511 18.208h-1.098v-1.112h1.099v1.112zM1.098 17.096h-1.098v-1.114h1.098v1.114zM2.218 17.096h-1.098v-1.114h1.098v1.114zM1.098 18.208h-1.098v-1.112h1.098v1.112zM1.098 15.982h-1.098v-1.113h1.098v1.113zM35.153 17.096h-1.098v-1.114h1.098v1.114zM34.055 17.096h-1.098v-1.114h1.098v1.114zM32.957 17.096h-1.098v-1.114h1.098v1.114zM18.685 17.096h-1.098v-1.114h1.098v1.114zM17.587 17.096h-1.098v-1.114h1.098v1.114zM16.49 17.096h-1.098v-1.114h1.098v1.114zM35.153 15.982h-1.098v-1.113h1.098v1.113zM34.055 15.982h-1.098v-1.113h1.098v1.113zM29.664 15.982h-1.098v-1.113h1.098v1.113zM28.566 15.982h-1.098v-1.113h1.098v1.113zM27.468 15.982h-1.098v-1.113h1.098v1.113zM25.272 15.982h-1.098v-1.113h1.098v1.113zM24.174 15.982h-1.098v-1.113h1.098v1.113zM17.587 15.982h-1.098v-1.113h1.098v1.113zM11 15.982h-1.098v-1.113h1.098v1.113zM9.902 15.982h-1.098v-1.113h1.098v1.113zM7.706 15.982h-1.098v-1.113h1.098v1.113zM6.609 15.982h-1.098v-1.113h1.097v1.113z"></path>
<path fill="#ecd979" style="fill: var(--color1, #ecd979)" d="M5.511 15.982h-1.098v-1.113h1.099v1.113zM35.153 14.87h-1.098v-1.113h1.098v1.112zM30.762 14.87h-1.098v-1.113h1.098v1.112z"></path>
<path fill="#ecd979" style="fill: var(--color1, #ecd979)" d="M29.664 14.87h-1.098v-1.113h1.098v1.112zM28.566 14.87h-1.098v-1.113h1.098v1.112zM24.174 14.87h-1.098v-1.113h1.098v1.112zM23.077 14.87h-1.098v-1.113h1.098v1.112zM12.098 14.87h-1.098v-1.113h1.098v1.112zM11 14.87h-1.098v-1.113h1.098v1.112zM6.609 14.87h-1.098v-1.113h1.097v1.112z"></path>
<path fill="#ecd979" style="fill: var(--color1, #ecd979)" d="M5.511 14.87h-1.098v-1.113h1.099v1.112zM4.413 14.87h-1.098v-1.113h1.098v1.112zM31.859 13.757h-1.098v-1.114h1.098v1.114zM30.762 13.757h-1.098v-1.114h1.098v1.114z"></path>
<path fill="#ecd979" style="fill: var(--color1, #ecd979)" d="M29.664 13.757h-1.098v-1.114h1.098v1.114zM26.37 13.757h-1.098v-1.114h1.098v1.114zM23.077 13.757h-1.098v-1.114h1.098v1.114zM21.978 13.757h-1.098v-1.114h1.098v1.114zM13.196 13.757h-1.098v-1.114h1.098v1.114zM12.098 13.757h-1.098v-1.114h1.098v1.114zM8.805 13.757h-1.098v-1.114h1.098v1.114zM5.511 13.757h-1.098v-1.114h1.099v1.114zM4.413 13.757h-1.098v-1.114h1.098v1.114zM3.315 13.757h-1.098v-1.114h1.098v1.114zM27.468 12.643h-1.098v-1.113h1.098v1.113zM26.37 12.643h-1.098v-1.113h1.098v1.113zM21.978 12.643h-1.098v-1.113h1.098v1.113z"></path>
<path fill="#ecd979" style="fill: var(--color1, #ecd979)" d="M20.88 12.643h-1.098v-1.113h1.098v1.113zM14.294 12.643h-1.098v-1.113h1.098v1.113zM13.196 12.643h-1.098v-1.113h1.098v1.113zM8.805 12.643h-1.098v-1.113h1.098v1.113zM7.706 12.643h-1.098v-1.113h1.098v1.113zM28.566 11.53h-1.098v-1.113h1.098v1.113zM27.468 11.53h-1.098v-1.113h1.098v1.113zM26.37 11.53h-1.098v-1.113h1.098v1.113zM20.88 11.53h-1.098v-1.113h1.098v1.113z"></path>
<path fill="#ecd979" style="fill: var(--color1, #ecd979)" d="M19.783 11.53h-1.098v-1.113h1.098v1.113zM15.392 11.53h-1.098v-1.113h1.098v1.113z"></path>
<path fill="#ecd979" style="fill: var(--color1, #ecd979)" d="M14.294 11.53h-1.098v-1.113h1.098v1.113zM8.805 11.53h-1.098v-1.113h1.098v1.113zM7.706 11.53h-1.098v-1.113h1.098v1.113zM6.609 11.53h-1.098v-1.113h1.097v1.113zM28.566 10.418h-1.098v-1.114h1.098v1.114zM27.468 10.418h-1.098v-1.114h1.098v1.114zM19.783 10.418h-1.098v-1.114h1.098v1.114z"></path>
<path fill="#ecd979" style="fill: var(--color1, #ecd979)" d="M18.685 10.418h-1.098v-1.114h1.098v1.114zM16.49 10.418h-1.098v-1.114h1.098v1.114zM15.392 10.418h-1.098v-1.114h1.098v1.114zM7.706 10.418h-1.098v-1.114h1.098v1.114zM6.609 10.418h-1.098v-1.114h1.097v1.114zM28.566 9.304h-1.098v-1.112h1.098v1.112zM18.685 9.304h-1.098v-1.112h1.098v1.112zM16.49 9.304h-1.098v-1.112h1.098v1.112zM6.609 9.304h-1.098v-1.112h1.097v1.112zM34.055 8.192h-1.098v-1.114h1.098v1.113zM1.12 8.192h-1.099v-1.114h1.099v1.113z"></path>
<path fill="#ecd979" style="fill: var(--color1, #ecd979)" d="M34.055 7.078h-1.098v-1.114h1.098v1.114zM32.957 7.078h-1.098v-1.114h1.098v1.114zM23.077 7.078h-1.098v-1.114h1.098v1.114zM21.978 7.078h-1.098v-1.114h1.098v1.114z"></path>
<path fill="#ecd979" style="fill: var(--color1, #ecd979)" d="M20.88 7.078h-1.098v-1.114h1.098v1.114zM14.294 7.078h-1.098v-1.114h1.098v1.114zM13.196 7.078h-1.098v-1.114h1.098v1.114zM12.098 7.078h-1.098v-1.114h1.098v1.114zM2.218 7.078h-1.098v-1.114h1.098v1.114z"></path>
<path fill="#ecd979" style="fill: var(--color1, #ecd979)" d="M1.12 7.078h-1.099v-1.114h1.099v1.114zM34.055 5.966h-1.098v-1.114h1.098v1.114zM32.957 5.966h-1.098v-1.114h1.098v1.114zM31.859 5.966h-1.098v-1.114h1.098v1.114zM24.174 5.966h-1.098v-1.114h1.098v1.114zM23.077 5.966h-1.098v-1.114h1.098v1.114zM21.978 5.966h-1.098v-1.114h1.098v1.114zM18.685 5.966h-1.098v-1.114h1.098v1.114zM16.49 5.966h-1.098v-1.114h1.098v1.114zM13.196 5.966h-1.098v-1.114h1.098v1.114zM12.098 5.966h-1.098v-1.114h1.098v1.114zM11 5.966h-1.098v-1.114h1.098v1.114zM3.315 5.966h-1.098v-1.114h1.098v1.114z"></path>
<path fill="#ecd979" style="fill: var(--color1, #ecd979)" d="M2.218 5.966h-1.098v-1.114h1.098v1.114z"></path>
<path fill="#ecd979" style="fill: var(--color1, #ecd979)" d="M1.12 5.966h-1.099v-1.114h1.099v1.114zM32.957 4.852h-1.098v-1.113h1.098v1.113zM31.859 4.852h-1.098v-1.113h1.098v1.113zM30.762 4.852h-1.098v-1.113h1.098v1.113zM25.272 4.852h-1.098v-1.113h1.098v1.113zM24.174 4.852h-1.098v-1.113h1.098v1.113zM23.077 4.852h-1.098v-1.113h1.098v1.113zM19.783 4.852h-1.098v-1.113h1.098v1.113z"></path>
<path fill="#ecd979" style="fill: var(--color1, #ecd979)" d="M18.685 4.852h-1.098v-1.113h1.098v1.113zM16.49 4.852h-1.098v-1.113h1.098v1.113zM15.392 4.852h-1.098v-1.113h1.098v1.113zM12.098 4.852h-1.098v-1.113h1.098v1.113zM11 4.852h-1.098v-1.113h1.098v1.113zM9.902 4.852h-1.098v-1.113h1.098v1.113zM4.413 4.852h-1.098v-1.113h1.098v1.113zM3.315 4.852h-1.098v-1.113h1.098v1.113z"></path>
<path fill="#ecd979" style="fill: var(--color1, #ecd979)" d="M2.218 4.852h-1.098v-1.113h1.098v1.113zM31.859 3.739h-1.098v-1.113h1.098v1.112zM30.762 3.739h-1.098v-1.113h1.098v1.112z"></path>
<path fill="#ecd979" style="fill: var(--color1, #ecd979)" d="M29.664 3.739h-1.098v-1.113h1.098v1.112zM20.88 3.739h-1.098v-1.113h1.098v1.112z"></path>
<path fill="#ecd979" style="fill: var(--color1, #ecd979)" d="M19.783 3.739h-1.098v-1.113h1.098v1.112z"></path>
<path fill="#ecd979" style="fill: var(--color1, #ecd979)" d="M18.685 3.739h-1.098v-1.113h1.098v1.112zM16.49 3.739h-1.098v-1.113h1.098v1.112zM15.392 3.739h-1.098v-1.113h1.098v1.112z"></path>
<path fill="#ecd979" style="fill: var(--color1, #ecd979)" d="M14.294 3.739h-1.098v-1.113h1.098v1.112zM5.511 3.739h-1.098v-1.113h1.099v1.112zM4.413 3.739h-1.098v-1.113h1.098v1.112zM3.315 3.739h-1.098v-1.113h1.098v1.112zM35.153 2.626h-1.098v-1.114h1.098v1.114zM30.762 2.626h-1.098v-1.114h1.098v1.114z"></path>
<path fill="#ecd979" style="fill: var(--color1, #ecd979)" d="M29.664 2.626h-1.098v-1.114h1.098v1.114zM28.566 2.626h-1.098v-1.114h1.098v1.114zM20.88 2.626h-1.098v-1.114h1.098v1.114z"></path>
<path fill="#ecd979" style="fill: var(--color1, #ecd979)" d="M19.783 2.626h-1.098v-1.114h1.098v1.114zM15.392 2.626h-1.098v-1.114h1.098v1.114z"></path>
<path fill="#ecd979" style="fill: var(--color1, #ecd979)" d="M14.294 2.626h-1.098v-1.114h1.098v1.114zM6.609 2.626h-1.098v-1.114h1.097v1.114z"></path>
<path fill="#ecd979" style="fill: var(--color1, #ecd979)" d="M5.511 2.626h-1.098v-1.114h1.099v1.114zM4.413 2.626h-1.098v-1.114h1.098v1.114zM35.153 1.513h-1.098v-1.113h1.098v1.113zM34.055 1.513h-1.098v-1.113h1.098v1.113zM29.664 1.513h-1.098v-1.113h1.098v1.113zM28.566 1.513h-1.098v-1.113h1.098v1.113zM27.468 1.513h-1.098v-1.113h1.098v1.113zM20.88 1.513h-1.098v-1.113h1.098v1.113zM14.294 1.513h-1.098v-1.113h1.098v1.113zM7.706 1.513h-1.098v-1.113h1.098v1.113z"></path>
<path fill="#ecd979" style="fill: var(--color1, #ecd979)" d="M6.609 1.513h-1.098v-1.113h1.097v1.113z"></path>
<path fill="#ecd979" style="fill: var(--color1, #ecd979)" d="M5.511 1.513h-1.098v-1.113h1.099v1.113zM1.12 1.513h-1.099v-1.113h1.099v1.113z"></path>
</symbol>
<symbol id="icon-arrow-up-right2" viewBox="0 0 32 32">
<path d="M7.414 27.414l16.586-16.586v7.172c0 1.105 0.895 2 2 2s2-0.895 2-2v-12c0-0.809-0.487-1.538-1.235-1.848-0.248-0.103-0.508-0.151-0.765-0.151v-0.001h-12c-1.105 0-2 0.895-2 2s0.895 2 2 2h7.172l-16.586 16.586c-0.391 0.39-0.586 0.902-0.586 1.414s0.195 1.024 0.586 1.414c0.781 0.781 2.047 0.781 2.828 0z"></path>
</symbol>
<symbol id="icon-facebook" viewBox="0 0 32 32">
<path d="M19 6h5v-6h-5c-3.86 0-7 3.14-7 7v3h-4v6h4v16h6v-16h5l1-6h-6v-3c0-0.542 0.458-1 1-1z"></path>
</symbol>
<symbol id="icon-instagram" viewBox="0 0 32 32">
<path d="M16 2.881c4.275 0 4.781 0.019 6.462 0.094 1.563 0.069 2.406 0.331 2.969 0.55 0.744 0.288 1.281 0.638 1.837 1.194 0.563 0.563 0.906 1.094 1.2 1.838 0.219 0.563 0.481 1.412 0.55 2.969 0.075 1.688 0.094 2.194 0.094 6.463s-0.019 4.781-0.094 6.463c-0.069 1.563-0.331 2.406-0.55 2.969-0.288 0.744-0.637 1.281-1.194 1.837-0.563 0.563-1.094 0.906-1.837 1.2-0.563 0.219-1.413 0.481-2.969 0.55-1.688 0.075-2.194 0.094-6.463 0.094s-4.781-0.019-6.463-0.094c-1.563-0.069-2.406-0.331-2.969-0.55-0.744-0.288-1.281-0.637-1.838-1.194-0.563-0.563-0.906-1.094-1.2-1.837-0.219-0.563-0.481-1.413-0.55-2.969-0.075-1.688-0.094-2.194-0.094-6.463s0.019-4.781 0.094-6.463c0.069-1.563 0.331-2.406 0.55-2.969 0.288-0.744 0.638-1.281 1.194-1.838 0.563-0.563 1.094-0.906 1.838-1.2 0.563-0.219 1.412-0.481 2.969-0.55 1.681-0.075 2.188-0.094 6.463-0.094zM16 0c-4.344 0-4.887 0.019-6.594 0.094-1.7 0.075-2.869 0.35-3.881 0.744-1.056 0.412-1.95 0.956-2.837 1.85-0.894 0.888-1.438 1.781-1.85 2.831-0.394 1.019-0.669 2.181-0.744 3.881-0.075 1.713-0.094 2.256-0.094 6.6s0.019 4.887 0.094 6.594c0.075 1.7 0.35 2.869 0.744 3.881 0.413 1.056 0.956 1.95 1.85 2.837 0.887 0.887 1.781 1.438 2.831 1.844 1.019 0.394 2.181 0.669 3.881 0.744 1.706 0.075 2.25 0.094 6.594 0.094s4.888-0.019 6.594-0.094c1.7-0.075 2.869-0.35 3.881-0.744 1.050-0.406 1.944-0.956 2.831-1.844s1.438-1.781 1.844-2.831c0.394-1.019 0.669-2.181 0.744-3.881 0.075-1.706 0.094-2.25 0.094-6.594s-0.019-4.887-0.094-6.594c-0.075-1.7-0.35-2.869-0.744-3.881-0.394-1.063-0.938-1.956-1.831-2.844-0.887-0.887-1.781-1.438-2.831-1.844-1.019-0.394-2.181-0.669-3.881-0.744-1.712-0.081-2.256-0.1-6.6-0.1v0z"></path>
<path d="M16 7.781c-4.537 0-8.219 3.681-8.219 8.219s3.681 8.219 8.219 8.219 8.219-3.681 8.219-8.219c0-4.537-3.681-8.219-8.219-8.219zM16 21.331c-2.944 0-5.331-2.387-5.331-5.331s2.387-5.331 5.331-5.331c2.944 0 5.331 2.387 5.331 5.331s-2.387 5.331-5.331 5.331z"></path>
<path d="M26.462 7.456c0 1.060-0.859 1.919-1.919 1.919s-1.919-0.859-1.919-1.919c0-1.060 0.859-1.919 1.919-1.919s1.919 0.859 1.919 1.919z"></path>
</symbol>
<symbol id="icon-youtube" viewBox="0 0 32 32">
<path d="M31.681 9.6c0 0-0.313-2.206-1.275-3.175-1.219-1.275-2.581-1.281-3.206-1.356-4.475-0.325-11.194-0.325-11.194-0.325h-0.012c0 0-6.719 0-11.194 0.325-0.625 0.075-1.987 0.081-3.206 1.356-0.963 0.969-1.269 3.175-1.269 3.175s-0.319 2.588-0.319 5.181v2.425c0 2.587 0.319 5.181 0.319 5.181s0.313 2.206 1.269 3.175c1.219 1.275 2.819 1.231 3.531 1.369 2.563 0.244 10.881 0.319 10.881 0.319s6.725-0.012 11.2-0.331c0.625-0.075 1.988-0.081 3.206-1.356 0.962-0.969 1.275-3.175 1.275-3.175s0.319-2.587 0.319-5.181v-2.425c-0.006-2.588-0.325-5.181-0.325-5.181zM12.694 20.15v-8.994l8.644 4.513-8.644 4.481z"></path>
</symbol>
</defs>
</svg>
